STARTFONT 2.1
FONT -sun-timmons-bold-i-normal--14-140-75-75-p-78-adobe-fontspecific
SIZE 14 75 75
FONTBOUNDINGBOX 19 17 -3 -3

STARTPROPERTIES 28
FOUNDRY "sun"
FAMILY_NAME "timmons"
WEIGHT_NAME "bold"
SLANT "i"
SETWIDTH_NAME "normal"
ADD_STYLE_NAME ""
PIXEL_SIZE 15
POINT_SIZE 140
RESOLUTION_X 75
RESOLUTION_Y 75
SPACING "p"
AVERAGE_WIDTH 78
CHARSET_REGISTRY "adobe"
CHARSET_ENCODING "fontspecific"
COPYRIGHT "© 1999 Sun Microsystems, Inc."
RAW_PIXELSIZE 1000
RAW_POINTSIZE 964
RAW_ASCENT 932
RAW_DESCENT 200
RAW_AVERAGE_WIDTH 5346
FACE_NAME "TimmonsBoldItalicdensedN5"
_XMBDFED_INFO "Edited with xmbdfed 2.4."
WEIGHT 10
X_HEIGHT -1
QUAD_WIDTH 8
DEFAULT_CHAR 4
FONT_DESCENT 3
FONT_ASCENT 14
ENDPROPERTIES

CHARS 206

STARTCHAR char32
ENCODING 32
SWIDTH 24 0
DWIDTH 4 0
BBX 0 0 0 0
BITMAP
ENDCHAR

STARTCHAR char33
ENCODING 33
SWIDTH 24 0
DWIDTH 4 0
BBX 5 10 1 0
BITMAP
18
18
30
30
20
20
40
00
C0
C0
ENDCHAR

STARTCHAR char34
ENCODING 34
SWIDTH 43 0
DWIDTH 7 0
BBX 6 4 2 6
BITMAP
6C
6C
48
88
ENDCHAR

STARTCHAR char35
ENCODING 35
SWIDTH 49 0
DWIDTH 8 0
BBX 7 11 0 0
BITMAP
14
24
24
7E
24
24
24
FE
48
48
48
ENDCHAR

STARTCHAR char36
ENCODING 36
SWIDTH 49 0
DWIDTH 8 0
BBX 8 14 0 -2
BITMAP
04
04
1E
35
35
38
1C
0C
4E
4E
D6
FC
10
20
ENDCHAR

STARTCHAR char37
ENCODING 37
SWIDTH 5 0
DWIDTH 11 0
BBX 11 10 1 0
BITMAP
3900
5900
DA00
DBC0
D760
6760
0E60
1660
16C0
1380
ENDCHAR

STARTCHAR char38
ENCODING 38
SWIDTH 11 0
DWIDTH 12 0
BBX 10 11 1 0
BITMAP
0600
0B00
1B00
1A00
1C00
3BC0
7D00
CF00
CE00
EF40
7380
ENDCHAR

STARTCHAR char39
ENCODING 39
SWIDTH 24 0
DWIDTH 4 0
BBX 2 4 3 6
BITMAP
40
80
C0
C0
ENDCHAR

STARTCHAR char40
ENCODING 40
SWIDTH 30 0
DWIDTH 5 0
BBX 6 13 2 -2
BITMAP
0C
10
30
60
60
C0
C0
C0
C0
C0
C0
40
40
ENDCHAR

STARTCHAR char41
ENCODING 41
SWIDTH 30 0
DWIDTH 5 0
BBX 6 13 -1 -2
BITMAP
08
08
08
0C
0C
0C
0C
1C
18
10
30
60
80
ENDCHAR

STARTCHAR char42
ENCODING 42
SWIDTH 43 0
DWIDTH 7 0
BBX 5 5 3 5
BITMAP
B0
F8
D8
B0
10
ENDCHAR

STARTCHAR char43
ENCODING 43
SWIDTH 61 0
DWIDTH 10 0
BBX 9 8 1 0
BITMAP
1800
1800
1800
FF80
1800
1800
1800
1800
ENDCHAR

STARTCHAR char44
ENCODING 44
SWIDTH 24 0
DWIDTH 4 0
BBX 3 4 0 -2
BITMAP
60
60
20
40
ENDCHAR

STARTCHAR char45
ENCODING 45
SWIDTH 30 0
DWIDTH 5 0
BBX 5 2 1 3
BITMAP
F8
F0
ENDCHAR

STARTCHAR char46
ENCODING 46
SWIDTH 24 0
DWIDTH 4 0
BBX 2 2 1 0
BITMAP
C0
C0
ENDCHAR

STARTCHAR char47
ENCODING 47
SWIDTH 36 0
DWIDTH 6 0
BBX 6 10 1 0
BITMAP
0C
08
08
10
10
20
20
60
40
40
ENDCHAR

STARTCHAR char48
ENCODING 48
SWIDTH 43 0
DWIDTH 7 0
BBX 7 10 1 0
BITMAP
1C
36
66
66
C6
CC
CC
CC
D8
70
ENDCHAR

STARTCHAR char49
ENCODING 49
SWIDTH 43 0
DWIDTH 7 0
BBX 6 10 1 0
BITMAP
3C
18
18
18
30
30
30
30
60
F0
ENDCHAR

STARTCHAR char50
ENCODING 50
SWIDTH 43 0
DWIDTH 7 0
BBX 7 10 0 0
BITMAP
1C
26
06
06
04
08
10
24
7C
78
ENDCHAR

STARTCHAR char51
ENCODING 51
SWIDTH 43 0
DWIDTH 7 0
BBX 6 10 1 0
BITMAP
3C
2C
0C
18
70
18
18
18
90
E0
ENDCHAR

STARTCHAR char52
ENCODING 52
SWIDTH 43 0
DWIDTH 7 0
BBX 7 11 1 0
BITMAP
02
06
0C
1C
2C
4C
58
98
FC
30
30
ENDCHAR

STARTCHAR char53
ENCODING 53
SWIDTH 43 0
DWIDTH 7 0
BBX 7 10 1 0
BITMAP
1E
3C
20
78
1C
0C
0C
0C
98
F0
ENDCHAR

STARTCHAR char54
ENCODING 54
SWIDTH 43 0
DWIDTH 7 0
BBX 7 11 1 0
BITMAP
06
18
30
20
78
6C
CC
CC
CC
C8
70
ENDCHAR

STARTCHAR char55
ENCODING 55
SWIDTH 43 0
DWIDTH 7 0
BBX 6 10 2 0
BITMAP
7C
FC
08
08
10
20
20
40
40
80
ENDCHAR

STARTCHAR char56
ENCODING 56
SWIDTH 43 0
DWIDTH 7 0
BBX 7 10 1 0
BITMAP
3C
26
26
3C
38
5C
CC
CC
C8
70
ENDCHAR

STARTCHAR char57
ENCODING 57
SWIDTH 43 0
DWIDTH 7 0
BBX 7 10 1 0
BITMAP
3C
26
66
66
66
3C
0C
18
10
60
ENDCHAR

STARTCHAR char58
ENCODING 58
SWIDTH 24 0
DWIDTH 4 0
BBX 4 7 1 0
BITMAP
30
30
00
00
00
C0
C0
ENDCHAR

STARTCHAR char59
ENCODING 59
SWIDTH 24 0
DWIDTH 4 0
BBX 4 9 1 -2
BITMAP
30
30
00
00
00
C0
E0
40
80
ENDCHAR

STARTCHAR char60
ENCODING 60
SWIDTH 55 0
DWIDTH 9 0
BBX 8 7 0 0
BITMAP
03
1C
60
C0
30
0C
03
ENDCHAR

STARTCHAR char61
ENCODING 61
SWIDTH 61 0
DWIDTH 10 0
BBX 10 4 0 2
BITMAP
FFC0
0000
0000
FFC0
ENDCHAR

STARTCHAR char62
ENCODING 62
SWIDTH 55 0
DWIDTH 9 0
BBX 8 7 0 0
BITMAP
E0
18
06
03
0C
30
C0
ENDCHAR

STARTCHAR char63
ENCODING 63
SWIDTH 43 0
DWIDTH 7 0
BBX 6 10 2 0
BITMAP
7C
6C
5C
18
30
40
40
00
C0
C0
ENDCHAR

STARTCHAR char64
ENCODING 64
SWIDTH 36 0
DWIDTH 16 0
BBX 11 11 2 0
BITMAP
0F00
3180
6040
4FE0
D160
F160
F340
F240
7F80
30C0
1F00
ENDCHAR

STARTCHAR char65
ENCODING 65
SWIDTH 61 0
DWIDTH 10 0
BBX 9 10 0 0
BITMAP
0080
0180
0380
0780
0B00
0B00
1F00
2300
4300
E780
ENDCHAR

STARTCHAR char66
ENCODING 66
SWIDTH 55 0
DWIDTH 9 0
BBX 9 10 0 0
BITMAP
1F80
1980
1980
3B00
3C00
3200
3300
7300
6600
FC00
ENDCHAR

STARTCHAR char67
ENCODING 67
SWIDTH 61 0
DWIDTH 10 0
BBX 10 10 2 0
BITMAP
1F80
3080
6080
6000
C000
C000
C000
C000
6200
3C00
ENDCHAR

STARTCHAR char68
ENCODING 68
SWIDTH 5 0
DWIDTH 11 0
BBX 10 10 0 0
BITMAP
1F00
1880
18C0
38C0
30C0
30C0
3180
7180
6300
FC00
ENDCHAR

STARTCHAR char69
ENCODING 69
SWIDTH 55 0
DWIDTH 9 0
BBX 10 10 0 0
BITMAP
3FC0
1840
1800
1900
3E00
3200
3000
7100
6300
FF00
ENDCHAR

STARTCHAR char70
ENCODING 70
SWIDTH 49 0
DWIDTH 8 0
BBX 10 10 0 0
BITMAP
1FC0
1C80
1880
1900
3E00
3200
3000
3000
7000
F000
ENDCHAR

STARTCHAR char71
ENCODING 71
SWIDTH 5 0
DWIDTH 11 0
BBX 10 10 2 0
BITMAP
1FC0
3040
6040
E000
C000
C380
C300
C700
4600
3E00
ENDCHAR

STARTCHAR char72
ENCODING 72
SWIDTH 5 0
DWIDTH 11 0
BBX 14 10 -1 0
BITMAP
0F3C
0C30
0C30
1C70
1FE0
1860
18E0
38C0
30C0
79E0
ENDCHAR

STARTCHAR char73
ENCODING 73
SWIDTH 30 0
DWIDTH 5 0
BBX 7 10 0 0
BITMAP
1E
1C
18
18
38
30
30
30
70
B0
ENDCHAR

STARTCHAR char74
ENCODING 74
SWIDTH 43 0
DWIDTH 7 0
BBX 8 10 0 0
BITMAP
07
06
0E
0C
0C
1C
18
58
D8
F0
ENDCHAR

STARTCHAR char75
ENCODING 75
SWIDTH 61 0
DWIDTH 10 0
BBX 11 11 0 0
BITMAP
20E0
1CC0
1980
1A00
1C00
3E00
3600
3600
7700
6300
F780
ENDCHAR

STARTCHAR char76
ENCODING 76
SWIDTH 55 0
DWIDTH 9 0
BBX 9 10 0 0
BITMAP
1C00
1800
1800
1800
3800
3000
3000
7080
6100
FF00
ENDCHAR

STARTCHAR char77
ENCODING 77
SWIDTH 17 0
DWIDTH 13 0
BBX 16 10 -1 0
BITMAP
1E0F
0E1C
0E2C
163C
1658
1698
26B8
2730
2630
74B8
ENDCHAR

STARTCHAR char78
ENCODING 78
SWIDTH 5 0
DWIDTH 11 0
BBX 12 10 0 0
BITMAP
1C30
1C20
1E20
1640
2740
2340
2380
4180
4180
E080
ENDCHAR

STARTCHAR char79
ENCODING 79
SWIDTH 5 0
DWIDTH 11 0
BBX 9 10 2 0
BITMAP
1F00
3180
6180
6180
C180
C180
C300
C200
4400
7800
ENDCHAR

STARTCHAR char80
ENCODING 80
SWIDTH 55 0
DWIDTH 9 0
BBX 9 10 0 0
BITMAP
1F00
1980
1980
1980
3B00
3E00
3000
7000
6000
F000
ENDCHAR

STARTCHAR char81
ENCODING 81
SWIDTH 5 0
DWIDTH 11 0
BBX 9 12 2 -2
BITMAP
1F00
3180
6180
6180
C180
C180
C300
C200
C600
7800
2180
7E00
ENDCHAR

STARTCHAR char82
ENCODING 82
SWIDTH 61 0
DWIDTH 10 0
BBX 9 11 0 0
BITMAP
1800
1F00
1980
1980
3900
3E00
3600
3600
7600
6200
F380
ENDCHAR

STARTCHAR char83
ENCODING 83
SWIDTH 49 0
DWIDTH 8 0
BBX 9 10 0 0
BITMAP
1F80
3080
3080
3800
1E00
0E00
4700
4300
C600
FC00
ENDCHAR

STARTCHAR char84
ENCODING 84
SWIDTH 49 0
DWIDTH 8 0
BBX 8 10 2 0
BITMAP
FF
9B
39
30
30
70
60
60
E0
F0
ENDCHAR

STARTCHAR char85
ENCODING 85
SWIDTH 61 0
DWIDTH 10 0
BBX 11 10 2 0
BITMAP
38E0
2080
6080
6100
6100
C100
C200
C200
C400
7800
ENDCHAR

STARTCHAR char86
ENCODING 86
SWIDTH 55 0
DWIDTH 9 0
BBX 10 10 2 0
BITMAP
79C0
6100
6200
6400
6400
6800
7000
6000
C000
4000
ENDCHAR

STARTCHAR char87
ENCODING 87
SWIDTH 23 0
DWIDTH 14 0
BBX 14 10 2 0
BITMAP
73D8
6310
6720
6F20
EF40
F780
E700
E600
C600
8400
ENDCHAR

STARTCHAR char88
ENCODING 88
SWIDTH 61 0
DWIDTH 10 0
BBX 11 10 0 0
BITMAP
1C60
1C80
0D00
0E00
0E00
0E00
1600
2700
4300
E780
ENDCHAR

STARTCHAR char89
ENCODING 89
SWIDTH 61 0
DWIDTH 10 0
BBX 10 10 2 0
BITMAP
7DC0
3100
3200
3200
3C00
1800
3000
3000
3000
F800
ENDCHAR

STARTCHAR char90
ENCODING 90
SWIDTH 55 0
DWIDTH 9 0
BBX 11 10 0 0
BITMAP
3FE0
21C0
0380
0700
0E00
1C00
3800
7080
E100
FF00
ENDCHAR

STARTCHAR char91
ENCODING 91
SWIDTH 24 0
DWIDTH 4 0
BBX 7 13 0 -2
BITMAP
1E
18
18
10
30
30
20
60
60
60
C0
C0
60
ENDCHAR

STARTCHAR char92
ENCODING 92
SWIDTH 24 0
DWIDTH 4 0
BBX 4 11 0 0
BITMAP
80
80
80
40
40
40
20
20
20
10
10
ENDCHAR

STARTCHAR char93
ENCODING 93
SWIDTH 24 0
DWIDTH 4 0
BBX 7 13 -1 -2
BITMAP
1E
06
0C
0C
0C
18
18
18
10
30
30
30
E0
ENDCHAR

STARTCHAR char94
ENCODING 94
SWIDTH 0 0
DWIDTH 0 0
BBX 5 2 0 11
BITMAP
70
D8
ENDCHAR

STARTCHAR char95
ENCODING 95
SWIDTH 55 0
DWIDTH 9 0
BBX 8 1 0 -2
BITMAP
FF
ENDCHAR

STARTCHAR char96
ENCODING 96
SWIDTH 0 0
DWIDTH 0 0
BBX 3 2 0 8
BITMAP
C0
40
ENDCHAR

STARTCHAR char97
ENCODING 97
SWIDTH 49 0
DWIDTH 8 0
BBX 7 7 1 0
BITMAP
36
6C
4C
CC
D8
DA
FC
ENDCHAR

STARTCHAR char98
ENCODING 98
SWIDTH 43 0
DWIDTH 7 0
BBX 7 11 0 0
BITMAP
08
18
18
30
3E
36
26
66
64
6C
78
ENDCHAR

STARTCHAR char99
ENCODING 99
SWIDTH 36 0
DWIDTH 6 0
BBX 6 7 1 0
BITMAP
3C
6C
40
C0
C0
C8
70
ENDCHAR

STARTCHAR char100
ENCODING 100
SWIDTH 49 0
DWIDTH 8 0
BBX 8 11 1 0
BITMAP
01
06
06
06
3E
6C
4C
CC
D8
DA
FC
ENDCHAR

STARTCHAR char101
ENCODING 101
SWIDTH 43 0
DWIDTH 7 0
BBX 6 7 1 0
BITMAP
3C
6C
4C
F0
C0
C8
70
ENDCHAR

STARTCHAR char102
ENCODING 102
SWIDTH 30 0
DWIDTH 5 0
BBX 10 14 -2 -3
BITMAP
01C0
03C0
0600
0600
1F00
0C00
0C00
1800
1800
1800
1000
3000
E000
4000
ENDCHAR

STARTCHAR char103
ENCODING 103
SWIDTH 43 0
DWIDTH 7 0
BBX 8 9 -1 -2
BITMAP
1E
37
37
36
3C
7C
3E
C6
7C
ENDCHAR

STARTCHAR char104
ENCODING 104
SWIDTH 49 0
DWIDTH 8 0
BBX 8 11 0 0
BITMAP
08
18
18
30
36
3F
76
66
66
6D
46
ENDCHAR

STARTCHAR char105
ENCODING 105
SWIDTH 24 0
DWIDTH 4 0
BBX 4 11 1 0
BITMAP
30
30
00
00
E0
60
60
40
C0
F0
C0
ENDCHAR

STARTCHAR char106
ENCODING 106
SWIDTH 24 0
DWIDTH 4 0
BBX 8 13 -3 -2
BITMAP
02
02
00
00
0E
06
0C
0C
0C
08
18
D8
70
ENDCHAR

STARTCHAR char107
ENCODING 107
SWIDTH 49 0
DWIDTH 8 0
BBX 8 11 0 0
BITMAP
08
18
18
30
37
34
6C
7C
6C
ED
46
ENDCHAR

STARTCHAR char108
ENCODING 108
SWIDTH 24 0
DWIDTH 4 0
BBX 4 11 1 0
BITMAP
10
30
30
20
60
60
60
40
C0
E0
C0
ENDCHAR

STARTCHAR char109
ENCODING 109
SWIDTH 11 0
DWIDTH 12 0
BBX 12 7 0 0
BITMAP
6660
3EE0
3760
6660
66C0
6CF0
4CC0
ENDCHAR

STARTCHAR char110
ENCODING 110
SWIDTH 49 0
DWIDTH 8 0
BBX 8 7 0 0
BITMAP
47
3F
36
66
6E
6D
4E
ENDCHAR

STARTCHAR char111
ENCODING 111
SWIDTH 49 0
DWIDTH 8 0
BBX 7 7 1 0
BITMAP
3C
66
C6
CE
CE
DC
78
ENDCHAR

STARTCHAR char112
ENCODING 112
SWIDTH 49 0
DWIDTH 8 0
BBX 8 9 -1 -2
BITMAP
27
1B
33
33
32
36
7C
60
E0
ENDCHAR

STARTCHAR char113
ENCODING 113
SWIDTH 49 0
DWIDTH 8 0
BBX 7 9 1 -2
BITMAP
3E
6C
4C
CC
DC
F8
D8
18
30
ENDCHAR

STARTCHAR char114
ENCODING 114
SWIDTH 36 0
DWIDTH 6 0
BBX 7 7 0 0
BITMAP
66
3E
28
70
70
60
60
ENDCHAR

STARTCHAR char115
ENCODING 115
SWIDTH 36 0
DWIDTH 6 0
BBX 6 7 0 0
BITMAP
3C
2C
30
38
18
58
F0
ENDCHAR

STARTCHAR char116
ENCODING 116
SWIDTH 30 0
DWIDTH 5 0
BBX 5 9 1 0
BITMAP
10
30
F8
60
60
60
C0
F0
C0
ENDCHAR

STARTCHAR char117
ENCODING 117
SWIDTH 49 0
DWIDTH 8 0
BBX 7 7 1 0
BITMAP
46
66
6E
4C
DC
EE
CC
ENDCHAR

STARTCHAR char118
ENCODING 118
SWIDTH 36 0
DWIDTH 6 0
BBX 6 7 0 0
BITMAP
6C
6C
34
38
38
30
20
ENDCHAR

STARTCHAR char119
ENCODING 119
SWIDTH 55 0
DWIDTH 9 0
BBX 10 7 0 0
BITMAP
E2C0
66C0
6E40
7680
6700
4600
4400
ENDCHAR

STARTCHAR char120
ENCODING 120
SWIDTH 49 0
DWIDTH 8 0
BBX 8 7 0 0
BITMAP
73
37
18
18
18
EE
CC
ENDCHAR

STARTCHAR char121
ENCODING 121
SWIDTH 43 0
DWIDTH 7 0
BBX 8 9 -1 -2
BITMAP
7B
3B
19
1A
1C
1C
10
F0
C0
ENDCHAR

STARTCHAR char122
ENCODING 122
SWIDTH 36 0
DWIDTH 6 0
BBX 6 8 0 -1
BITMAP
3C
7C
48
10
20
40
EC
38
ENDCHAR

STARTCHAR char123
ENCODING 123
SWIDTH 30 0
DWIDTH 5 0
BBX 3 13 1 -3
BITMAP
E0
C0
40
C0
40
80
80
C0
C0
C0
C0
C0
60
ENDCHAR

STARTCHAR char124
ENCODING 124
SWIDTH 24 0
DWIDTH 4 0
BBX 2 11 1 0
BITMAP
C0
C0
C0
C0
C0
C0
C0
C0
C0
C0
C0
ENDCHAR

STARTCHAR char125
ENCODING 125
SWIDTH 30 0
DWIDTH 5 0
BBX 3 13 1 -3
BITMAP
C0
C0
C0
C0
C0
60
60
C0
40
40
C0
C0
80
ENDCHAR

STARTCHAR char126
ENCODING 126
SWIDTH 0 0
DWIDTH 0 0
BBX 6 2 0 11
BITMAP
78
90
ENDCHAR

STARTCHAR char128
ENCODING 128
SWIDTH 43 0
DWIDTH 7 0
BBX 9 10 0 0
BITMAP
0700
1880
1080
3000
7E00
FC00
6000
6000
6600
3800
ENDCHAR

STARTCHAR char130
ENCODING 130
SWIDTH 24 0
DWIDTH 4 0
BBX 3 4 0 -2
BITMAP
60
60
20
40
ENDCHAR

STARTCHAR char131
ENCODING 131
SWIDTH 0 0
DWIDTH 0 0
BBX 5 2 0 11
BITMAP
70
D8
ENDCHAR

STARTCHAR char132
ENCODING 132
SWIDTH 43 0
DWIDTH 7 0
BBX 6 4 0 -2
BITMAP
6C
6C
44
88
ENDCHAR

STARTCHAR char133
ENCODING 133
SWIDTH 36 0
DWIDTH 16 0
BBX 12 2 1 0
BITMAP
C630
C630
ENDCHAR

STARTCHAR char134
ENCODING 134
SWIDTH 43 0
DWIDTH 7 0
BBX 6 12 2 -2
BITMAP
18
18
FC
FC
70
60
60
40
40
40
80
80
ENDCHAR

STARTCHAR char136
ENCODING 136
SWIDTH 0 0
DWIDTH 0 0
BBX 5 2 -1 8
BITMAP
30
50
ENDCHAR

STARTCHAR char137
ENCODING 137
SWIDTH 29 0
DWIDTH 15 0
BBX 0 0 0 0
BITMAP
ENDCHAR

STARTCHAR char138
ENCODING 138
SWIDTH 29 0
DWIDTH 15 0
BBX 0 0 0 0
BITMAP
ENDCHAR

STARTCHAR char139
ENCODING 139
SWIDTH 30 0
DWIDTH 5 0
BBX 3 4 1 2
BITMAP
60
C0
C0
60
ENDCHAR

STARTCHAR char140
ENCODING 140
SWIDTH 29 0
DWIDTH 15 0
BBX 15 10 1 0
BITMAP
0FFE
38C4
31C0
6188
E1F0
E190
C380
C308
E718
3FF0
ENDCHAR

STARTCHAR char141
ENCODING 141
SWIDTH 29 0
DWIDTH 15 0
BBX 0 0 0 0
BITMAP
ENDCHAR

STARTCHAR char143
ENCODING 143
SWIDTH 29 0
DWIDTH 15 0
BBX 0 0 0 0
BITMAP
ENDCHAR

STARTCHAR char145
ENCODING 145
SWIDTH 24 0
DWIDTH 4 0
BBX 3 4 3 6
BITMAP
40
80
C0
C0
ENDCHAR

STARTCHAR char146
ENCODING 146
SWIDTH 24 0
DWIDTH 4 0
BBX 3 4 2 6
BITMAP
60
60
40
80
ENDCHAR

STARTCHAR char147
ENCODING 147
SWIDTH 43 0
DWIDTH 7 0
BBX 7 5 2 6
BITMAP
22
44
88
CC
CC
ENDCHAR

STARTCHAR char148
ENCODING 148
SWIDTH 43 0
DWIDTH 7 0
BBX 6 4 2 6
BITMAP
6C
6C
48
88
ENDCHAR

STARTCHAR char149
ENCODING 149
SWIDTH 30 0
DWIDTH 5 0
BBX 4 4 0 3
BITMAP
60
F0
F0
60
ENDCHAR

STARTCHAR char150
ENCODING 150
SWIDTH 43 0
DWIDTH 7 0
BBX 6 2 1 3
BITMAP
FC
FC
ENDCHAR

STARTCHAR char151
ENCODING 151
SWIDTH 61 0
DWIDTH 10 0
BBX 10 1 0 4
BITMAP
FFC0
ENDCHAR

STARTCHAR char152
ENCODING 152
SWIDTH 0 0
DWIDTH 0 0
BBX 6 2 -1 8
BITMAP
68
B8
ENDCHAR

STARTCHAR char153
ENCODING 153
SWIDTH 17 0
DWIDTH 13 0
BBX 12 6 0 4
BITMAP
FE30
DA30
4350
4350
43B0
66B0
ENDCHAR

STARTCHAR char155
ENCODING 155
SWIDTH 30 0
DWIDTH 5 0
BBX 3 4 1 2
BITMAP
C0
60
60
80
ENDCHAR

STARTCHAR char156
ENCODING 156
SWIDTH 61 0
DWIDTH 10 0
BBX 11 7 0 0
BITMAP
3DE0
7660
E6E0
E780
C400
CE40
7F80
ENDCHAR

STARTCHAR char157
ENCODING 157
SWIDTH 29 0
DWIDTH 15 0
BBX 0 0 0 0
BITMAP
ENDCHAR

STARTCHAR char159
ENCODING 159
SWIDTH 61 0
DWIDTH 10 0
BBX 10 13 2 0
BITMAP
3300
3300
0000
7DC0
2100
3200
3200
3C00
3800
3000
3000
3000
F000
ENDCHAR

STARTCHAR char160
ENCODING 160
SWIDTH 24 0
DWIDTH 4 0
BBX 0 0 0 0
BITMAP
ENDCHAR

STARTCHAR char161
ENCODING 161
SWIDTH 24 0
DWIDTH 4 0
BBX 5 10 0 0
BITMAP
18
18
10
10
20
20
60
60
60
40
ENDCHAR

STARTCHAR char162
ENCODING 162
SWIDTH 36 0
DWIDTH 6 0
BBX 6 11 1 -2
BITMAP
08
08
3C
5C
50
E0
E0
C8
70
40
40
ENDCHAR

STARTCHAR char163
ENCODING 163
SWIDTH 61 0
DWIDTH 10 0
BBX 10 10 0 0
BITMAP
03C0
0480
0C00
0C00
3E00
0800
0800
7800
DD80
EF00
ENDCHAR

STARTCHAR char164
ENCODING 164
SWIDTH 0 0
DWIDTH 0 0
BBX 3 2 2 11
BITMAP
60
C0
ENDCHAR

STARTCHAR char165
ENCODING 165
SWIDTH 0 0
DWIDTH 0 0
BBX 5 2 1 11
BITMAP
98
70
ENDCHAR

STARTCHAR char166
ENCODING 166
SWIDTH 29 0
DWIDTH 15 0
BBX 0 0 0 0
BITMAP
ENDCHAR

STARTCHAR char167
ENCODING 167
SWIDTH 49 0
DWIDTH 8 0
BBX 8 14 0 -3
BITMAP
0E
1B
18
1C
3C
6E
26
36
3C
18
18
D8
D8
70
ENDCHAR

STARTCHAR char168
ENCODING 168
SWIDTH 0 0
DWIDTH 0 0
BBX 5 3 -1 8
BITMAP
D8
D8
08
ENDCHAR

STARTCHAR char169
ENCODING 169
SWIDTH 11 0
DWIDTH 12 0
BBX 11 10 0 0
BITMAP
0E00
3180
4E80
5140
F160
F060
F060
5E40
6080
1F00
ENDCHAR

STARTCHAR char170
ENCODING 170
SWIDTH 0 0
DWIDTH 0 0
BBX 6 2 0 11
BITMAP
CC
CC
ENDCHAR

STARTCHAR char171
ENCODING 171
SWIDTH 49 0
DWIDTH 8 0
BBX 7 6 1 1
BITMAP
26
64
C8
C8
48
48
ENDCHAR

STARTCHAR char172
ENCODING 172
SWIDTH 5 0
DWIDTH 11 0
BBX 10 4 0 0
BITMAP
FFC0
00C0
00C0
00C0
ENDCHAR

STARTCHAR char174
ENCODING 174
SWIDTH 11 0
DWIDTH 12 0
BBX 11 10 0 0
BITMAP
0E00
3100
5E80
5B40
DB60
DC60
DE60
5B40
6080
1F00
ENDCHAR

STARTCHAR char175
ENCODING 175
SWIDTH 29 0
DWIDTH 15 0
BBX 0 0 0 0
BITMAP
ENDCHAR

STARTCHAR char176
ENCODING 176
SWIDTH 24 0
DWIDTH 4 0
BBX 6 5 1 5
BITMAP
30
48
CC
48
30
ENDCHAR

STARTCHAR char177
ENCODING 177
SWIDTH 49 0
DWIDTH 8 0
BBX 7 9 0 0
BITMAP
18
18
18
FE
18
18
18
00
FE
ENDCHAR

STARTCHAR char179
ENCODING 179
SWIDTH 29 0
DWIDTH 15 0
BBX 0 0 0 0
BITMAP
ENDCHAR

STARTCHAR char180
ENCODING 180
SWIDTH 0 0
DWIDTH 0 0
BBX 3 3 1 8
BITMAP
60
C0
80
ENDCHAR

STARTCHAR char182
ENCODING 182
SWIDTH 61 0
DWIDTH 10 0
BBX 7 12 1 -2
BITMAP
3E
76
F6
F6
76
36
36
36
36
36
36
36
ENDCHAR

STARTCHAR char183
ENCODING 183
SWIDTH 18 0
DWIDTH 3 0
BBX 2 2 1 3
BITMAP
C0
C0
ENDCHAR

STARTCHAR char184
ENCODING 184
SWIDTH 0 0
DWIDTH 0 0
BBX 3 3 -2 -3
BITMAP
40
60
E0
ENDCHAR

STARTCHAR char186
ENCODING 186
SWIDTH 0 0
DWIDTH 0 0
BBX 6 2 0 11
BITMAP
78
90
ENDCHAR

STARTCHAR char187
ENCODING 187
SWIDTH 49 0
DWIDTH 8 0
BBX 7 6 0 1
BITMAP
24
26
36
26
64
48
ENDCHAR

STARTCHAR char189
ENCODING 189
SWIDTH 29 0
DWIDTH 15 0
BBX 0 0 0 0
BITMAP
ENDCHAR

STARTCHAR char191
ENCODING 191
SWIDTH 43 0
DWIDTH 7 0
BBX 6 10 0 0
BITMAP
0C
0C
00
08
10
30
60
D8
D8
70
ENDCHAR

STARTCHAR char192
ENCODING 192
SWIDTH 61 0
DWIDTH 10 0
BBX 9 13 0 0
BITMAP
0600
0300
0000
0180
0180
0380
0700
0B00
0B00
1F00
2300
4300
E780
ENDCHAR

STARTCHAR char193
ENCODING 193
SWIDTH 61 0
DWIDTH 10 0
BBX 10 13 0 0
BITMAP
0180
0300
0000
0180
0180
0380
0700
0B00
0B00
1F00
2300
4300
E780
ENDCHAR

STARTCHAR char194
ENCODING 194
SWIDTH 61 0
DWIDTH 10 0
BBX 9 13 0 0
BITMAP
0780
0C80
0000
0180
0180
0380
0700
0B00
0B00
1F00
2300
4300
E780
ENDCHAR

STARTCHAR char195
ENCODING 195
SWIDTH 61 0
DWIDTH 10 0
BBX 10 13 0 0
BITMAP
07C0
0500
0000
0180
0180
0380
0700
0B00
0B00
1F00
2300
4300
E780
ENDCHAR

STARTCHAR char196
ENCODING 196
SWIDTH 61 0
DWIDTH 10 0
BBX 12 13 0 0
BITMAP
0330
0330
0000
0180
0180
0380
0700
0B00
1300
1F00
2300
4300
E780
ENDCHAR

STARTCHAR char197
ENCODING 197
SWIDTH 61 0
DWIDTH 10 0
BBX 11 14 0 0
BITMAP
01E0
0160
01E0
0000
0080
0180
0380
0780
0B00
0B00
1F00
2300
4300
E780
ENDCHAR

STARTCHAR char198
ENCODING 198
SWIDTH 23 0
DWIDTH 14 0
BBX 16 10 -1 0
BITMAP
01FE
0162
01E0
02C8
04F8
08C8
0F88
1184
218C
F7F8
ENDCHAR

STARTCHAR char199
ENCODING 199
SWIDTH 61 0
DWIDTH 10 0
BBX 10 13 2 -3
BITMAP
1F80
3080
6080
6000
C000
C000
C000
C000
6200
3C00
2000
2000
6000
ENDCHAR

STARTCHAR char200
ENCODING 200
SWIDTH 55 0
DWIDTH 9 0
BBX 10 13 0 0
BITMAP
0600
0200
0000
3FC0
1840
1800
1900
3E00
3200
3000
7100
6300
FF00
ENDCHAR

STARTCHAR char201
ENCODING 201
SWIDTH 55 0
DWIDTH 9 0
BBX 10 13 0 0
BITMAP
0380
0200
0000
3FC0
1840
1800
1900
3E00
3200
3000
7100
6300
FF00
ENDCHAR

STARTCHAR char202
ENCODING 202
SWIDTH 55 0
DWIDTH 9 0
BBX 10 13 0 0
BITMAP
0700
0D80
0000
3FC0
1840
1800
1900
3E00
3200
3000
7100
6300
FF00
ENDCHAR

STARTCHAR char203
ENCODING 203
SWIDTH 55 0
DWIDTH 9 0
BBX 10 13 0 0
BITMAP
0CC0
0CC0
0000
3FC0
1C40
1800
1900
3F00
3200
3000
7080
6100
FF00
ENDCHAR

STARTCHAR char204
ENCODING 204
SWIDTH 30 0
DWIDTH 5 0
BBX 7 13 0 0
BITMAP
18
0C
00
1E
1C
18
18
38
30
30
30
70
B0
ENDCHAR

STARTCHAR char205
ENCODING 205
SWIDTH 30 0
DWIDTH 5 0
BBX 8 13 0 0
BITMAP
06
0C
00
1E
1C
18
18
38
30
30
30
70
B0
ENDCHAR

STARTCHAR char206
ENCODING 206
SWIDTH 30 0
DWIDTH 5 0
BBX 7 13 0 0
BITMAP
1E
32
00
1E
1C
18
18
38
30
30
30
70
B0
ENDCHAR

STARTCHAR char207
ENCODING 207
SWIDTH 30 0
DWIDTH 5 0
BBX 8 13 0 0
BITMAP
33
33
00
1E
1C
18
18
38
30
30
30
60
B0
ENDCHAR

STARTCHAR char209
ENCODING 209
SWIDTH 5 0
DWIDTH 11 0
BBX 12 13 0 0
BITMAP
0740
0480
0000
1C30
1C20
1E20
1640
2740
2340
2380
4180
4180
E080
ENDCHAR

STARTCHAR char210
ENCODING 210
SWIDTH 5 0
DWIDTH 11 0
BBX 9 13 2 0
BITMAP
0C00
0600
0000
1F00
3180
6180
6180
C180
C180
C300
C200
4400
7800
ENDCHAR

STARTCHAR char211
ENCODING 211
SWIDTH 5 0
DWIDTH 11 0
BBX 9 13 2 0
BITMAP
0600
0400
0000
1F00
3180
6180
6180
C180
C180
C300
C200
4400
7800
ENDCHAR

STARTCHAR char212
ENCODING 212
SWIDTH 5 0
DWIDTH 11 0
BBX 9 13 2 0
BITMAP
0E00
1A00
0000
1F00
3180
6180
6180
C180
C180
C300
C200
4400
7800
ENDCHAR

STARTCHAR char213
ENCODING 213
SWIDTH 5 0
DWIDTH 11 0
BBX 9 13 2 0
BITMAP
0D00
1600
0000
1F00
3180
6180
6180
C180
C180
C300
C200
4400
7800
ENDCHAR

STARTCHAR char214
ENCODING 214
SWIDTH 5 0
DWIDTH 11 0
BBX 9 13 2 0
BITMAP
0D80
0D80
0000
0F00
3180
6180
6180
C180
C180
C300
C200
4400
7800
ENDCHAR

STARTCHAR char216
ENCODING 216
SWIDTH 5 0
DWIDTH 11 0
BBX 11 12 1 -1
BITMAP
0020
0FC0
18C0
31C0
62C0
64C0
69C0
F180
6180
6300
BC00
8000
ENDCHAR

STARTCHAR char217
ENCODING 217
SWIDTH 61 0
DWIDTH 10 0
BBX 10 13 2 0
BITMAP
0C00
0400
0000
3880
2080
6080
6100
6100
C100
C200
C200
C400
7800
ENDCHAR

STARTCHAR char218
ENCODING 218
SWIDTH 61 0
DWIDTH 10 0
BBX 10 13 2 0
BITMAP
0600
0C00
0000
3880
2080
6080
6100
6100
C100
C200
C200
C400
7800
ENDCHAR

STARTCHAR char219
ENCODING 219
SWIDTH 61 0
DWIDTH 10 0
BBX 10 13 2 0
BITMAP
0E00
1A00
0000
3880
2080
6080
6100
6100
C100
C200
C200
C400
7800
ENDCHAR

STARTCHAR char220
ENCODING 220
SWIDTH 61 0
DWIDTH 10 0
BBX 10 13 2 0
BITMAP
1980
1980
0000
3880
2080
6080
6100
4100
C100
C200
C200
C400
7800
ENDCHAR

STARTCHAR char221
ENCODING 221
SWIDTH 29 0
DWIDTH 15 0
BBX 0 0 0 0
BITMAP
ENDCHAR

STARTCHAR char222
ENCODING 222
SWIDTH 29 0
DWIDTH 15 0
BBX 0 0 0 0
BITMAP
ENDCHAR

STARTCHAR char223
ENCODING 223
SWIDTH 49 0
DWIDTH 8 0
BBX 11 13 -3 -2
BITMAP
01E0
0320
0720
0660
06C0
0660
0C60
0C60
0CE0
1AC0
1F80
D000
E000
ENDCHAR

STARTCHAR char224
ENCODING 224
SWIDTH 49 0
DWIDTH 8 0
BBX 7 10 1 0
BITMAP
10
08
00
36
6C
4C
CC
D8
DA
FC
ENDCHAR

STARTCHAR char225
ENCODING 225
SWIDTH 49 0
DWIDTH 8 0
BBX 7 11 1 0
BITMAP
0C
08
10
00
36
6C
4C
CC
D8
DA
FC
ENDCHAR

STARTCHAR char226
ENCODING 226
SWIDTH 49 0
DWIDTH 8 0
BBX 7 10 1 0
BITMAP
18
24
00
36
6C
4C
CC
D8
DA
FC
ENDCHAR

STARTCHAR char227
ENCODING 227
SWIDTH 49 0
DWIDTH 8 0
BBX 7 10 1 0
BITMAP
3E
00
00
36
6C
4C
CC
D8
DA
FC
ENDCHAR

STARTCHAR char228
ENCODING 228
SWIDTH 49 0
DWIDTH 8 0
BBX 7 11 1 0
BITMAP
1E
1E
00
00
3C
64
4C
CC
C8
FE
C8
ENDCHAR

STARTCHAR char229
ENCODING 229
SWIDTH 49 0
DWIDTH 8 0
BBX 7 11 1 0
BITMAP
1E
1E
1E
00
36
6C
4C
DC
D8
FA
FC
ENDCHAR

STARTCHAR char230
ENCODING 230
SWIDTH 61 0
DWIDTH 10 0
BBX 10 7 0 0
BITMAP
3DC0
66C0
0CC0
7F00
CC00
DC80
EF00
ENDCHAR

STARTCHAR char231
ENCODING 231
SWIDTH 36 0
DWIDTH 6 0
BBX 7 10 0 -3
BITMAP
1E
36
20
60
60
64
38
20
30
E0
ENDCHAR

STARTCHAR char232
ENCODING 232
SWIDTH 43 0
DWIDTH 7 0
BBX 6 10 1 0
BITMAP
30
10
00
3C
6C
4C
F0
C0
C8
70
ENDCHAR

STARTCHAR char233
ENCODING 233
SWIDTH 43 0
DWIDTH 7 0
BBX 6 11 1 0
BITMAP
0C
18
10
00
3C
6C
4C
F0
C0
C8
70
ENDCHAR

STARTCHAR char234
ENCODING 234
SWIDTH 43 0
DWIDTH 7 0
BBX 6 10 1 0
BITMAP
18
28
00
3C
6C
4C
F0
C0
C8
70
ENDCHAR

STARTCHAR char235
ENCODING 235
SWIDTH 43 0
DWIDTH 7 0
BBX 6 11 1 0
BITMAP
6C
6C
04
00
38
4C
C8
F0
80
C8
70
ENDCHAR

STARTCHAR char236
ENCODING 236
SWIDTH 24 0
DWIDTH 4 0
BBX 4 10 1 0
BITMAP
60
20
00
60
60
60
60
C0
F0
C0
ENDCHAR

STARTCHAR char237
ENCODING 237
SWIDTH 24 0
DWIDTH 4 0
BBX 5 11 1 0
BITMAP
18
30
20
00
60
60
60
60
C0
F0
C0
ENDCHAR

STARTCHAR char238
ENCODING 238
SWIDTH 24 0
DWIDTH 4 0
BBX 5 10 1 0
BITMAP
30
50
00
70
60
60
60
C0
D0
E0
ENDCHAR

STARTCHAR char239
ENCODING 239
SWIDTH 24 0
DWIDTH 4 0
BBX 5 11 1 0
BITMAP
D8
D8
08
00
E0
60
60
C0
C0
E0
C0
ENDCHAR

STARTCHAR char241
ENCODING 241
SWIDTH 49 0
DWIDTH 8 0
BBX 8 10 0 0
BITMAP
1F
14
00
77
3F
36
66
6E
6D
4E
ENDCHAR

STARTCHAR char242
ENCODING 242
SWIDTH 49 0
DWIDTH 8 0
BBX 7 10 1 0
BITMAP
30
18
00
3C
66
C6
CE
CE
DC
78
ENDCHAR

STARTCHAR char243
ENCODING 243
SWIDTH 49 0
DWIDTH 8 0
BBX 7 11 1 0
BITMAP
0E
0C
10
00
3C
66
C6
CE
CE
DC
78
ENDCHAR

STARTCHAR char244
ENCODING 244
SWIDTH 49 0
DWIDTH 8 0
BBX 7 10 1 0
BITMAP
1C
24
00
3C
66
C6
CE
CE
DC
78
ENDCHAR

STARTCHAR char245
ENCODING 245
SWIDTH 49 0
DWIDTH 8 0
BBX 7 10 1 0
BITMAP
3E
24
00
3C
66
C6
CE
CE
DC
78
ENDCHAR

STARTCHAR char246
ENCODING 246
SWIDTH 49 0
DWIDTH 8 0
BBX 7 11 1 0
BITMAP
36
36
00
00
3C
64
CC
CC
CC
D8
70
ENDCHAR

STARTCHAR char247
ENCODING 247
SWIDTH 49 0
DWIDTH 8 0
BBX 7 6 0 1
BITMAP
18
18
00
FE
18
18
ENDCHAR

STARTCHAR char248
ENCODING 248
SWIDTH 49 0
DWIDTH 8 0
BBX 8 9 0 -1
BITMAP
01
1E
36
6E
76
76
6C
78
80
ENDCHAR

STARTCHAR char249
ENCODING 249
SWIDTH 49 0
DWIDTH 8 0
BBX 7 10 1 0
BITMAP
10
08
00
66
66
6C
4C
DC
EE
CC
ENDCHAR

STARTCHAR char250
ENCODING 250
SWIDTH 49 0
DWIDTH 8 0
BBX 7 11 1 0
BITMAP
06
0C
08
00
66
66
6C
4C
DC
EE
CC
ENDCHAR

STARTCHAR char251
ENCODING 251
SWIDTH 49 0
DWIDTH 8 0
BBX 7 10 1 0
BITMAP
1C
24
00
66
66
6C
4C
DC
EE
CC
ENDCHAR

STARTCHAR char252
ENCODING 252
SWIDTH 49 0
DWIDTH 8 0
BBX 7 11 1 0
BITMAP
36
36
00
00
66
66
4C
4C
DC
FA
DC
ENDCHAR

STARTCHAR char255
ENCODING 255
SWIDTH 43 0
DWIDTH 7 0
BBX 8 13 -1 -2
BITMAP
1B
1B
01
00
73
33
31
12
14
18
10
E0
C0
ENDCHAR
ENDFONT
